<svg width="119" height="119" viewBox="0 0 119 119" fill="none" xmlns="http://www.w3.org/2000/svg">
<path d="M3 17.1841C3 9.35043 9.35044 3 17.1841 3H101.816C109.65 3 116 9.35044 116 17.1841V101.816C116 109.65 109.65 116 101.816 116H17.1841C9.35043 116 3 109.65 3 101.816V17.1841Z" fill="black"/>
<path fill-rule="evenodd" clip-rule="evenodd" d="M0.399582 17.1841C0.399582 7.91426 7.91427 0.399581 17.1841 0.399581H101.816C111.086 0.399581 118.6 7.91427 118.6 17.1841V101.816C118.6 111.086 111.086 118.6 101.816 118.6H17.1841C7.91426 118.6 0.399582 111.086 0.399582 101.816V17.1841ZM17.1841 5.60042C10.7866 5.60042 5.60042 10.7866 5.60042 17.1841V101.816C5.60042 108.213 10.7866 113.4 17.1841 113.4H101.816C108.213 113.4 113.4 108.213 113.4 101.816V17.1841C113.4 10.7866 108.213 5.60042 101.816 5.60042H17.1841Z" fill="white"/>
<path fill-rule="evenodd" clip-rule="evenodd" d="M10.8013 18.0753C10.8013 12.9834 14.9291 8.85565 20.0209 8.85565H91.887C96.9789 8.85565 101.107 12.9834 101.107 18.0753V83.3222C101.107 88.4141 96.9789 92.5418 91.887 92.5418H20.0209C14.9291 92.5418 10.8013 88.4141 10.8013 83.3222V18.0753ZM20.0209 11.2197C16.2347 11.2197 13.1653 14.289 13.1653 18.0753V83.3222C13.1653 87.1084 16.2347 90.1778 20.0209 90.1778H91.887C95.6733 90.1778 98.7427 87.1084 98.7427 83.3222V18.0753C98.7427 14.289 95.6733 11.2197 91.887 11.2197H20.0209Z" fill="white"/>
<path d="M22.5234 68.6543H24.418V75.6465L31.4102 68.6543H34.0957L28.1289 74.4355L34.2617 83H31.7324L26.7129 75.8027L24.418 78V83H22.5234V68.6543Z" fill="white"/>
<path d="M41.6539 74.7188C42.4742 74.7188 43.1122 74.6048 43.568 74.377C44.2841 74.0189 44.6422 73.3743 44.6422 72.4434C44.6422 71.5059 44.2613 70.8743 43.4996 70.5488C43.0699 70.3665 42.4319 70.2754 41.5855 70.2754H38.1187V74.7188H41.6539ZM42.3082 81.3398C43.4996 81.3398 44.3492 80.9948 44.857 80.3047C45.176 79.8685 45.3355 79.3411 45.3355 78.7227C45.3355 77.681 44.8701 76.9714 43.9391 76.5938C43.4443 76.3919 42.79 76.291 41.9762 76.291H38.1187V81.3398H42.3082ZM36.2145 68.6543H42.3766C44.0562 68.6543 45.2509 69.1556 45.9605 70.1582C46.3772 70.7507 46.5855 71.4342 46.5855 72.209C46.5855 73.1139 46.3284 73.8561 45.8141 74.4355C45.5471 74.7415 45.163 75.0215 44.6617 75.2754C45.3974 75.5553 45.9475 75.8711 46.3121 76.2227C46.9566 76.8477 47.2789 77.7103 47.2789 78.8105C47.2789 79.735 46.9892 80.5716 46.4098 81.3203C45.5439 82.4401 44.1669 83 42.2789 83H36.2145V68.6543Z" fill="white"/>
<path d="M49.9543 68.6543H52.7375L56.8586 80.7832L60.9504 68.6543H63.7043V83H61.8586V74.5332C61.8586 74.2402 61.8651 73.7552 61.8781 73.0781C61.8911 72.401 61.8977 71.6751 61.8977 70.9004L57.8059 83H55.882L51.7609 70.9004V71.3398C51.7609 71.6914 51.7674 72.2285 51.7805 72.9512C51.8 73.6673 51.8098 74.1947 51.8098 74.5332V83H49.9543V68.6543Z" fill="white"/>
<g clip-path="url(#clip0_1_12)">
<path d="M38.8912 58.2383C35.9048 57.9524 32.8812 56.8805 30.2839 55.1868C28.1074 53.7676 27.6159 53.1841 27.6159 52.0198C27.6159 49.681 30.1888 45.5847 34.5909 40.915C37.091 38.2629 40.5735 35.1542 40.9501 35.2384C41.6822 35.402 47.5356 41.1085 49.7268 43.7947C53.1919 48.0426 54.7849 51.5207 53.9757 53.0713C53.3605 54.2501 49.5432 56.5539 46.7387 57.439C44.4273 58.1685 41.3917 58.4776 38.8912 58.2383ZM24.6763 49.5881C22.8676 46.815 21.9539 44.0849 21.5127 40.1362C21.367 38.8323 21.4192 38.0865 21.8435 35.4103C22.3723 32.0748 24.2728 28.216 26.5566 25.8412C27.5292 24.8298 27.6161 24.8051 28.8017 25.2043C30.2414 25.6891 31.779 26.7504 34.1635 28.9054L35.5548 30.1627L34.7951 31.0955C31.2684 35.4257 27.5454 41.5636 26.1424 45.361C25.3796 47.4254 25.072 49.4977 25.4002 50.3604C25.6217 50.9429 25.4182 50.7258 24.6763 49.5881ZM56.4231 50.0598C56.6018 49.1881 56.3758 47.5871 55.8462 45.9723C54.6992 42.4753 50.8653 35.9697 47.3448 31.5465L46.2365 30.154L47.4355 29.0537C49.001 27.617 50.088 26.7567 51.2608 26.0261C52.1863 25.4496 53.5088 24.9393 54.0773 24.9393C54.4278 24.9393 55.6616 26.2191 56.6577 27.6158C58.2005 29.7789 59.3354 32.4012 59.9104 35.1309C60.2819 36.8947 60.3129 40.6702 59.9702 42.4296C59.6891 43.8735 59.0953 45.7465 58.5161 47.0168C58.0821 47.9686 57.0028 49.8171 56.5298 50.4186C56.2866 50.7278 56.2864 50.7271 56.4231 50.0598ZM39.2109 24.2789C37.5865 23.4545 35.0806 22.5695 33.6964 22.3314C33.2111 22.2479 32.3832 22.2014 31.8567 22.228C30.7146 22.2856 30.7656 22.2259 32.5978 21.3608C34.1211 20.6415 35.3917 20.2185 37.1165 19.8566C39.0569 19.4494 42.704 19.4446 44.6135 19.8467C46.6759 20.2811 49.1044 21.1843 50.4728 22.026L50.8795 22.2762L49.9464 22.2291C48.0921 22.1355 45.3896 22.8842 42.4882 24.2954C41.6131 24.7211 40.8517 25.061 40.7963 25.0509C40.7409 25.0407 40.0275 24.6934 39.2109 24.2789Z" fill="white"/>
</g>
<defs>
<clipPath id="clip0_1_12">
<rect width="38.7699" height="38.7699" fill="white" transform="translate(21.4393 19.5481)"/>
</clipPath>
</defs>
</svg>
